<svg width="126" height="35" viewBox="0 0 126 35" fill="none" xmlns="http://www.w3.org/2000/svg">
<rect width="35" height="35" rx="7" fill="#FF5619"/>
<path d="M16.4632 17.2201C15.6305 17.2201 14.8706 17.0945 14.1834 16.8433C14.0541 16.796 13.9273 16.7443 13.8032 16.6881C13.6878 16.6347 13.5763 16.5776 13.4686 16.517C12.8616 16.1751 12.3758 15.7188 12.0112 15.1481C11.5819 14.4761 11.3672 13.6548 11.3672 12.6841C11.3672 11.7135 11.5819 10.8921 12.0112 10.2201C12.4592 9.52945 13.0659 9.00678 13.8312 8.65212C14.6152 8.29745 15.5019 8.12012 16.4912 8.12012C17.0699 8.12012 17.6019 8.17612 18.0872 8.28812C18.5912 8.40012 19.0392 8.56812 19.4312 8.79212C19.8419 9.01612 20.1965 9.29612 20.4952 9.63212L20.5792 9.71612C20.8965 10.0895 21.1392 10.5281 21.3072 11.0321C21.4752 11.5175 21.5592 12.0588 21.5592 12.6561C21.5592 13.6081 21.3445 14.4295 20.9152 15.1201C20.4859 15.7921 19.8792 16.3148 19.0952 16.6881C18.3299 17.0428 17.4525 17.2201 16.4632 17.2201ZM16.4352 16.2401C16.9765 16.2401 17.4432 16.0908 17.8352 15.7921C18.2272 15.4935 18.5259 15.0735 18.7312 14.5321C18.9365 13.9908 19.0392 13.3468 19.0392 12.6001C19.0392 11.8721 18.9365 11.2468 18.7312 10.7241C18.5259 10.2015 18.2365 9.80012 17.8632 9.52012C17.4899 9.24012 17.0325 9.10012 16.4912 9.10012C15.9685 9.10012 15.5112 9.24945 15.1192 9.54812C14.7272 9.84678 14.4285 10.2668 14.2232 10.8081C14.0179 11.3308 13.9152 11.9561 13.9152 12.6841C13.9152 13.4308 14.0179 14.0748 14.2232 14.6161C14.4285 15.1388 14.7085 15.5401 15.0632 15.8201C15.4365 16.1001 15.8939 16.2401 16.4352 16.2401ZM19.6832 10.2201L19.6552 9.52012H19.8232L23.2672 8.12012L23.6312 8.37212V10.2201H19.6832Z" fill="white"/>
<path fill-rule="evenodd" clip-rule="evenodd" d="M20.6352 25.8161C20.9899 25.3868 21.1672 24.9015 21.1672 24.3601C21.1672 23.7068 20.9525 23.1841 20.5232 22.7921C20.0939 22.4188 19.4032 22.2321 18.4512 22.2321H15.3432L13.7192 22.0921C13.0099 21.9615 12.4592 21.6161 12.0672 21.2241C11.6752 20.8135 11.4792 20.2908 11.4792 19.6561C11.4792 19.1148 11.6565 18.5735 12.0112 18.0321C12.3353 17.5622 12.8211 17.0572 13.4686 16.517C13.5763 16.5776 13.6878 16.6347 13.8032 16.6881C13.9273 16.7443 14.0541 16.796 14.1834 16.8433C13.9977 17.0639 13.8524 17.2735 13.7472 17.4721C13.5979 17.7895 13.5232 18.1068 13.5232 18.4241C13.5232 18.9095 13.6725 19.2735 13.9712 19.5161C14.2885 19.7401 14.7832 19.8521 15.4552 19.8521H18.7872C19.8699 19.8521 20.7472 19.9921 21.4192 20.2721C22.1099 20.5521 22.6232 20.9628 22.9592 21.5041C23.2952 22.0268 23.4632 22.6708 23.4632 23.4361C23.4632 24.0708 23.3045 24.6868 22.9872 25.2841C22.6699 25.8815 22.2032 26.4135 21.5872 26.8801L20.6352 25.8161Z" fill="white"/>
<path d="M14.1834 16.8433C14.8706 17.0945 15.6305 17.2201 16.4632 17.2201C17.4525 17.2201 18.3299 17.0428 19.0952 16.6881C19.8792 16.3148 20.4859 15.7921 20.9152 15.1201C21.3445 14.4295 21.5592 13.6081 21.5592 12.6561C21.5592 12.0588 21.4752 11.5175 21.3072 11.0321C21.1392 10.5281 20.8965 10.0895 20.5792 9.71612L20.4952 9.63212C20.1965 9.29612 19.8419 9.01612 19.4312 8.79212C19.0392 8.56812 18.5912 8.40012 18.0872 8.28812C17.6019 8.17612 17.0699 8.12012 16.4912 8.12012C15.5019 8.12012 14.6152 8.29745 13.8312 8.65212C13.0659 9.00678 12.4592 9.52945 12.0112 10.2201C11.5819 10.8921 11.3672 11.7135 11.3672 12.6841C11.3672 13.6548 11.5819 14.4761 12.0112 15.1481C12.3758 15.7188 12.8616 16.1751 13.4686 16.517M14.1834 16.8433C14.0541 16.796 13.9273 16.7443 13.8032 16.6881C13.6878 16.6347 13.5763 16.5776 13.4686 16.517M14.1834 16.8433C13.9977 17.0639 13.8524 17.2735 13.7472 17.4721C13.5979 17.7895 13.5232 18.1068 13.5232 18.4241C13.5232 18.9095 13.6725 19.2735 13.9712 19.5161C14.2885 19.7401 14.7832 19.8521 15.4552 19.8521H18.7872C19.8699 19.8521 20.7472 19.9921 21.4192 20.2721C22.1099 20.5521 22.6232 20.9628 22.9592 21.5041C23.2952 22.0268 23.4632 22.6708 23.4632 23.4361C23.4632 24.0708 23.3045 24.6868 22.9872 25.2841C22.6699 25.8815 22.2032 26.4135 21.5872 26.8801L20.6352 25.8161C20.9899 25.3868 21.1672 24.9015 21.1672 24.3601C21.1672 23.7068 20.9525 23.1841 20.5232 22.7921C20.0939 22.4188 19.4032 22.2321 18.4512 22.2321H15.3432L13.7192 22.0921C13.0099 21.9615 12.4592 21.6161 12.0672 21.2241C11.6752 20.8135 11.4792 20.2908 11.4792 19.6561C11.4792 19.1148 11.6565 18.5735 12.0112 18.0321C12.3353 17.5622 12.8211 17.0572 13.4686 16.517M14.1834 16.8433C14.2943 16.7115 14.4196 16.5758 14.5592 16.4361L13.7752 15.9881V16.2681C13.6693 16.3519 13.5671 16.4348 13.4686 16.517M16.4352 16.2401C16.9765 16.2401 17.4432 16.0908 17.8352 15.7921C18.2272 15.4935 18.5259 15.0735 18.7312 14.5321C18.9365 13.9908 19.0392 13.3468 19.0392 12.6001C19.0392 11.8721 18.9365 11.2468 18.7312 10.7241C18.5259 10.2015 18.2365 9.80012 17.8632 9.52012C17.4899 9.24012 17.0325 9.10012 16.4912 9.10012C15.9685 9.10012 15.5112 9.24945 15.1192 9.54812C14.7272 9.84678 14.4285 10.2668 14.2232 10.8081C14.0179 11.3308 13.9152 11.9561 13.9152 12.6841C13.9152 13.4308 14.0179 14.0748 14.2232 14.6161C14.4285 15.1388 14.7085 15.5401 15.0632 15.8201C15.4365 16.1001 15.8939 16.2401 16.4352 16.2401ZM19.6832 10.2201L19.6552 9.52012H19.8232L23.2672 8.12012L23.6312 8.37212V10.2201H19.6832Z" stroke="white" stroke-width="0.875"/>
<path d="M50.382 24.4254C49.1251 24.4254 48.0424 24.1329 47.134 23.548C46.2255 22.9507 45.5287 22.1356 45.0433 21.1027C44.5704 20.0698 44.334 18.8752 44.334 17.5187C44.334 16.1872 44.5767 14.9987 45.062 13.9534C45.5598 12.908 46.2691 12.0867 47.19 11.4894C48.1109 10.8796 49.2184 10.5747 50.5127 10.5747C51.6327 10.5747 52.5722 10.7676 53.3313 11.1534C54.1029 11.5392 54.7189 12.0743 55.1793 12.7587C55.6398 13.4432 55.9633 14.2334 56.15 15.1294L53.6113 15.26C53.4744 14.476 53.1633 13.8538 52.678 13.3934C52.2051 12.9205 51.4895 12.684 50.5313 12.684C49.6851 12.684 48.9882 12.9018 48.4407 13.3374C47.9055 13.7729 47.5011 14.3578 47.2273 15.092C46.966 15.8138 46.8353 16.6227 46.8353 17.5187C46.8353 18.4396 46.966 19.2609 47.2273 19.9827C47.4887 20.7045 47.8931 21.2769 48.4407 21.7C49.0007 22.1107 49.7038 22.316 50.55 22.316C51.2095 22.316 51.7758 22.1792 52.2487 21.9054C52.7215 21.6316 53.0949 21.2583 53.3687 20.7854C53.6424 20.3 53.7918 19.7649 53.8167 19.18H50.55V17.2947H56.1873V24.1267H54.6193L54.47 21.2147L54.7687 21.4014C54.6318 21.9987 54.3518 22.5276 53.9287 22.988C53.518 23.436 53.0015 23.7907 52.3793 24.052C51.7695 24.3009 51.1038 24.4254 50.382 24.4254Z" fill="#1D1D1D"/>
<path d="M58.5689 24.1267V10.8734H60.9956V24.1267H58.5689Z" fill="#1D1D1D"/>
<path d="M63.6913 24.1267V10.8734H68.0967C70.2122 10.8734 71.8362 11.452 72.9687 12.6094C74.1135 13.7543 74.686 15.3907 74.686 17.5187C74.686 19.6343 74.126 21.2645 73.006 22.4094C71.886 23.5543 70.2869 24.1267 68.2087 24.1267H63.6913ZM66.118 22.0174H68.0967C69.478 22.0174 70.5047 21.644 71.1767 20.8974C71.8487 20.1507 72.1846 19.0245 72.1846 17.5187C72.1846 15.988 71.8487 14.8494 71.1767 14.1027C70.5047 13.356 69.478 12.9827 68.0967 12.9827H66.118V22.0174Z" fill="#1D1D1D"/>
<path d="M76.6887 24.1267V10.8734H79.1154V24.1267H76.6887Z" fill="#1D1D1D"/>
<path d="M81.8111 24.1267V10.8734H86.9444C88.5 10.8734 89.7133 11.2467 90.5844 11.9934C91.4556 12.74 91.8911 13.7729 91.8911 15.092C91.8911 15.9756 91.692 16.7409 91.2938 17.388C90.8956 18.0227 90.3293 18.508 89.5951 18.844C88.8609 19.18 87.9773 19.348 86.9444 19.348H84.2378V24.1267H81.8111ZM84.2378 17.2387H86.8324C87.6538 17.2387 88.2822 17.0583 88.7178 16.6974C89.1658 16.3365 89.3898 15.8014 89.3898 15.092C89.3898 14.3952 89.1658 13.8725 88.7178 13.524C88.2822 13.1632 87.6538 12.9827 86.8324 12.9827H84.2378V17.2387Z" fill="#1D1D1D"/>
<path d="M93.6557 24.1267V14.1587H96.045V24.1267H93.6557ZM93.6184 12.8334V10.7054H96.101V12.8334H93.6184Z" fill="#1D1D1D"/>
<path d="M102.044 24.1267C101.048 24.1267 100.314 23.8965 99.8409 23.436C99.3805 22.9756 99.1503 22.2538 99.1503 21.2707V11.8254H101.54V21.0467C101.54 21.5072 101.639 21.8307 101.838 22.0174C102.037 22.1916 102.348 22.2787 102.772 22.2787H104.172V24.1267H102.044ZM97.5823 16.0067V14.1587H104.172V16.0067H97.5823Z" fill="#1D1D1D"/>
<path d="M110.091 24.3507C109.095 24.3507 108.23 24.1392 107.496 23.716C106.762 23.2805 106.189 22.6707 105.779 21.8867C105.38 21.1027 105.181 20.188 105.181 19.1427C105.181 18.0974 105.38 17.1889 105.779 16.4174C106.189 15.6334 106.762 15.0236 107.496 14.588C108.23 14.1525 109.095 13.9347 110.091 13.9347C110.937 13.9347 111.69 14.084 112.349 14.3827C113.009 14.6814 113.544 15.1107 113.955 15.6707C114.378 16.2183 114.639 16.8903 114.739 17.6867L112.275 17.8174C112.175 17.1827 111.926 16.7036 111.528 16.38C111.142 16.044 110.663 15.876 110.091 15.876C109.319 15.876 108.722 16.1685 108.299 16.7534C107.875 17.3258 107.664 18.1223 107.664 19.1427C107.664 20.1756 107.875 20.9783 108.299 21.5507C108.722 22.1232 109.319 22.4094 110.091 22.4094C110.675 22.4094 111.161 22.2414 111.547 21.9054C111.945 21.5694 112.187 21.0467 112.275 20.3374L114.739 20.4494C114.639 21.2458 114.384 21.9365 113.973 22.5214C113.563 23.1063 113.027 23.5605 112.368 23.884C111.708 24.1952 110.949 24.3507 110.091 24.3507Z" fill="#1D1D1D"/>
<path d="M116.406 24.1267V10.8734H118.795V16.436H118.496C118.596 15.8636 118.795 15.3969 119.094 15.036C119.392 14.6627 119.759 14.3889 120.195 14.2147C120.631 14.028 121.11 13.9347 121.632 13.9347C122.367 13.9347 122.983 14.0965 123.48 14.42C123.991 14.7312 124.37 15.1729 124.619 15.7454C124.88 16.3178 125.011 16.9774 125.011 17.724V24.1267H122.622V18.3027C122.622 17.4938 122.485 16.8903 122.211 16.492C121.937 16.0814 121.508 15.876 120.923 15.876C120.276 15.876 119.759 16.0876 119.374 16.5107C118.988 16.9338 118.795 17.5498 118.795 18.3587V24.1267H116.406Z" fill="#1D1D1D"/>
</svg>
