<svg width="66" height="76" viewBox="0 0 66 76" fill="none"
    xmlns="http://www.w3.org/2000/svg">
    <g filter="url(#filter0_ddddd_639_1180)">
        <path d="M4 12C4 5.37258 9.37258 0 16 0H50C56.6274 0 62 5.37258 62 12V46C62 52.6274 56.6274 58 50 58H16C9.37258 58 4 52.6274 4 46V12Z" fill="url(#paint0_linear_639_1180)"/>
        <path d="M31.2837 28.5361C29.9038 28.5361 28.6445 28.3279 27.5057 27.9116C27.2914 27.8332 27.0814 27.7475 26.8757 27.6545C26.6845 27.5659 26.4997 27.4713 26.3212 27.3708C25.3154 26.8043 24.5103 26.0482 23.9061 25.1025C23.1946 23.9889 22.8389 22.6278 22.8389 21.0193C22.8389 19.4107 23.1946 18.0497 23.9061 16.9361C24.6485 15.7915 25.6538 14.9254 26.9221 14.3377C28.2213 13.7499 29.6906 13.4561 31.3301 13.4561C32.289 13.4561 33.1706 13.5489 33.9749 13.7345C34.8101 13.9201 35.5525 14.1985 36.2021 14.5697C36.8826 14.9409 37.4703 15.4049 37.9653 15.9617L38.1045 16.1009C38.6303 16.7195 39.0325 17.4465 39.3109 18.2817C39.5893 19.0859 39.7285 19.983 39.7285 20.9729C39.7285 22.5505 39.3727 23.9115 38.6613 25.0561C37.9498 26.1697 36.9445 27.0358 35.6453 27.6545C34.377 28.2422 32.9231 28.5361 31.2837 28.5361ZM31.2373 26.9121C32.1343 26.9121 32.9077 26.6646 33.5573 26.1697C34.2069 25.6747 34.7018 24.9787 35.0421 24.0817C35.3823 23.1846 35.5525 22.1174 35.5525 20.8801C35.5525 19.6737 35.3823 18.6374 35.0421 17.7713C34.7018 16.9051 34.2223 16.2401 33.6037 15.7761C32.985 15.3121 32.2271 15.0801 31.3301 15.0801C30.4639 15.0801 29.7061 15.3275 29.0565 15.8225C28.4069 16.3174 27.9119 17.0134 27.5717 17.9105C27.2314 18.7766 27.0613 19.8129 27.0613 21.0193C27.0613 22.2566 27.2314 23.3238 27.5717 24.2209C27.9119 25.087 28.3759 25.7521 28.9637 26.2161C29.5823 26.6801 30.3402 26.9121 31.2373 26.9121ZM36.6197 16.9361L36.5733 15.7761H36.8517L42.5589 13.4561L43.1621 13.8737V16.9361H36.6197Z" fill="white"/>
        <path fill-rule="evenodd" clip-rule="evenodd" d="M38.1973 42.7809C38.785 42.0694 39.0789 41.2651 39.0789 40.3681C39.0789 39.2854 38.7231 38.4193 38.0117 37.7697C37.3002 37.151 36.1557 36.8417 34.5781 36.8417H29.4277L26.7365 36.6097C25.561 36.3931 24.6485 35.8209 23.9989 35.1713C23.3493 34.4907 23.0245 33.6246 23.0245 32.5729C23.0245 31.6758 23.3183 30.7787 23.9061 29.8817C24.4431 29.103 25.2481 28.266 26.3212 27.3708C26.4997 27.4713 26.6845 27.5659 26.8757 27.6545C27.0814 27.7475 27.2914 27.8332 27.5057 27.9116C27.1981 28.2771 26.9571 28.6245 26.7829 28.9537C26.5354 29.4795 26.4117 30.0054 26.4117 30.5313C26.4117 31.3355 26.6591 31.9387 27.1541 32.3409C27.6799 32.7121 28.4997 32.8977 29.6133 32.8977H35.1349C36.929 32.8977 38.3829 33.1297 39.4965 33.5937C40.641 34.0577 41.4917 34.7382 42.0485 35.6353C42.6053 36.5014 42.8837 37.5686 42.8837 38.8369C42.8837 39.8886 42.6207 40.9094 42.0949 41.8993C41.569 42.8891 40.7957 43.7707 39.7749 44.5441L38.1973 42.7809Z" fill="white"/>
        <path d="M27.5057 27.9116C28.6445 28.3279 29.9038 28.5361 31.2837 28.5361C32.9231 28.5361 34.377 28.2422 35.6453 27.6545C36.9445 27.0358 37.9498 26.1697 38.6613 25.0561C39.3727 23.9115 39.7285 22.5505 39.7285 20.9729C39.7285 19.983 39.5893 19.0859 39.3109 18.2817C39.0325 17.4465 38.6303 16.7195 38.1045 16.1009L37.9653 15.9617C37.4703 15.4049 36.8826 14.9409 36.2021 14.5697C35.5525 14.1985 34.8101 13.9201 33.9749 13.7345C33.1706 13.5489 32.289 13.4561 31.3301 13.4561C29.6906 13.4561 28.2213 13.7499 26.9221 14.3377C25.6538 14.9254 24.6485 15.7915 23.9061 16.9361C23.1946 18.0497 22.8389 19.4107 22.8389 21.0193C22.8389 22.6278 23.1946 23.9889 23.9061 25.1025C24.5103 26.0482 25.3154 26.8043 26.3212 27.3708M27.5057 27.9116C27.2914 27.8332 27.0814 27.7475 26.8757 27.6545C26.6845 27.5659 26.4997 27.4713 26.3212 27.3708M27.5057 27.9116C27.1981 28.2771 26.9571 28.6245 26.7829 28.9537C26.5354 29.4795 26.4117 30.0054 26.4117 30.5313C26.4117 31.3355 26.6591 31.9387 27.1541 32.3409C27.6799 32.7121 28.4997 32.8977 29.6133 32.8977H35.1349C36.929 32.8977 38.3829 33.1297 39.4965 33.5937C40.641 34.0577 41.4917 34.7382 42.0485 35.6353C42.6053 36.5014 42.8837 37.5686 42.8837 38.8369C42.8837 39.8886 42.6207 40.9094 42.0949 41.8993C41.569 42.8891 40.7957 43.7707 39.7749 44.5441L38.1973 42.7809C38.785 42.0694 39.0789 41.2651 39.0789 40.3681C39.0789 39.2854 38.7231 38.4193 38.0117 37.7697C37.3002 37.151 36.1557 36.8417 34.5781 36.8417H29.4277L26.7365 36.6097C25.561 36.3931 24.6485 35.8209 23.9989 35.1713C23.3493 34.4907 23.0245 33.6246 23.0245 32.5729C23.0245 31.6758 23.3183 30.7787 23.9061 29.8817C24.4431 29.103 25.2481 28.266 26.3212 27.3708M27.5057 27.9116C27.6895 27.6931 27.8971 27.4682 28.1285 27.2369L26.8293 26.4945V26.9585C26.6537 27.0973 26.4844 27.2347 26.3212 27.3708M31.2373 26.9121C32.1343 26.9121 32.9077 26.6646 33.5573 26.1697C34.2069 25.6747 34.7018 24.9787 35.0421 24.0817C35.3823 23.1846 35.5525 22.1174 35.5525 20.8801C35.5525 19.6737 35.3823 18.6374 35.0421 17.7713C34.7018 16.9051 34.2223 16.2401 33.6037 15.7761C32.985 15.3121 32.2271 15.0801 31.3301 15.0801C30.4639 15.0801 29.7061 15.3275 29.0565 15.8225C28.4069 16.3174 27.9119 17.0134 27.5717 17.9105C27.2314 18.7766 27.0613 19.8129 27.0613 21.0193C27.0613 22.2566 27.2314 23.3238 27.5717 24.2209C27.9119 25.087 28.3759 25.7521 28.9637 26.2161C29.5823 26.6801 30.3402 26.9121 31.2373 26.9121ZM36.6197 16.9361L36.5733 15.7761H36.8517L42.5589 13.4561L43.1621 13.8737V16.9361H36.6197Z" stroke="white" stroke-width="1.45"/>
    </g>
    <defs>
        <filter id="filter0_ddddd_639_1180" x="0" y="0" width="66" height="76" filterUnits="userSpaceOnUse" color-interpolation-filters="sRGB">
            <feFlood flood-opacity="0" result="BackgroundImageFix"/>
            <feColorMatrix in="SourceAlpha" type="matrix" values="0 0 0 0 0 0 0 0 0 0 0 0 0 0 0 0 0 0 127 0" result="hardAlpha"/>
            <feOffset dy="1"/>
            <feGaussianBlur stdDeviation="0.5"/>
            <feColorMatrix type="matrix" values="0 0 0 0 0.823529 0 0 0 0 0.262745 0 0 0 0 0.0588235 0 0 0 0.29 0"/>
            <feBlend mode="normal" in2="BackgroundImageFix" result="effect1_dropShadow_639_1180"/>
            <feColorMatrix in="SourceAlpha" type="matrix" values="0 0 0 0 0 0 0 0 0 0 0 0 0 0 0 0 0 0 127 0" result="hardAlpha"/>
            <feOffset dy="2"/>
            <feGaussianBlur stdDeviation="1"/>
            <feColorMatrix type="matrix" values="0 0 0 0 0.823529 0 0 0 0 0.262745 0 0 0 0 0.0588235 0 0 0 0.26 0"/>
            <feBlend mode="normal" in2="effect1_dropShadow_639_1180" result="effect2_dropShadow_639_1180"/>
            <feColorMatrix in="SourceAlpha" type="matrix" values="0 0 0 0 0 0 0 0 0 0 0 0 0 0 0 0 0 0 127 0" result="hardAlpha"/>
            <feOffset dy="5"/>
            <feGaussianBlur stdDeviation="1.5"/>
            <feColorMatrix type="matrix" values="0 0 0 0 0.823529 0 0 0 0 0.262745 0 0 0 0 0.0588235 0 0 0 0.15 0"/>
            <feBlend mode="normal" in2="effect2_dropShadow_639_1180" result="effect3_dropShadow_639_1180"/>
            <feColorMatrix in="SourceAlpha" type="matrix" values="0 0 0 0 0 0 0 0 0 0 0 0 0 0 0 0 0 0 127 0" result="hardAlpha"/>
            <feOffset dy="9"/>
            <feGaussianBlur stdDeviation="2"/>
            <feColorMatrix type="matrix" values="0 0 0 0 0.823529 0 0 0 0 0.262745 0 0 0 0 0.0588235 0 0 0 0.04 0"/>
            <feBlend mode="normal" in2="effect3_dropShadow_639_1180" result="effect4_dropShadow_639_1180"/>
            <feColorMatrix in="SourceAlpha" type="matrix" values="0 0 0 0 0 0 0 0 0 0 0 0 0 0 0 0 0 0 127 0" result="hardAlpha"/>
            <feOffset dy="14"/>
            <feGaussianBlur stdDeviation="2"/>
            <feColorMatrix type="matrix" values="0 0 0 0 0.823529 0 0 0 0 0.262745 0 0 0 0 0.0588235 0 0 0 0.01 0"/>
            <feBlend mode="normal" in2="effect4_dropShadow_639_1180" result="effect5_dropShadow_639_1180"/>
            <feBlend mode="normal" in="SourceGraphic" in2="effect5_dropShadow_639_1180" result="shape"/>
        </filter>
        <linearGradient id="paint0_linear_639_1180" x1="33" y1="0" x2="33" y2="58" gradientUnits="userSpaceOnUse">
            <stop stop-color="#FF7442"/>
            <stop offset="1" stop-color="#FF5619"/>
        </linearGradient>
    </defs>
</svg>
