<svg width="32" height="32" viewBox="0 0 32 32" fill="none"
    xmlns="http://www.w3.org/2000/svg">
    <g clip-path="url(#clip0_485_3342)">
        <path d="M22.0002 28.5003C22.0002 28.7655 21.8948 29.0198 21.7073 29.2074C21.5197 29.3949 21.2654 29.5003 21.0002 29.5003H11.0002C10.7349 29.5003 10.4806 29.3949 10.2931 29.2074C10.1055 29.0198 10.0002 28.7655 10.0002 28.5003C10.0002 28.235 10.1055 27.9807 10.2931 27.7932C10.4806 27.6056 10.7349 27.5003 11.0002 27.5003H21.0002C21.2654 27.5003 21.5197 27.6056 21.7073 27.7932C21.8948 27.9807 22.0002 28.235 22.0002 28.5003ZM27.0002 12.5003C27.0045 14.1673 26.6279 15.8133 25.8991 17.3127C25.1704 18.812 24.1087 20.125 22.7952 21.1515C22.5496 21.3398 22.3502 21.5817 22.2125 21.8588C22.0747 22.1359 22.0021 22.4408 22.0002 22.7503V23.5003C22.0002 24.0307 21.7894 24.5394 21.4144 24.9145C21.0393 25.2895 20.5306 25.5003 20.0002 25.5003H12.0002C11.4697 25.5003 10.961 25.2895 10.586 24.9145C10.2109 24.5394 10.0002 24.0307 10.0002 23.5003V22.7503C9.99996 22.4445 9.92965 22.1429 9.79465 21.8685C9.65965 21.5942 9.46355 21.3545 9.22141 21.1678C7.91116 20.1473 6.85022 18.8422 6.11889 17.3512C5.38755 15.8601 5.00499 14.2222 5.00016 12.5615C4.96766 6.60401 9.78266 1.64276 15.7352 1.50026C17.2018 1.46492 18.6608 1.72333 20.0261 2.26029C21.3914 2.79724 22.6355 3.60189 23.6852 4.62688C24.7349 5.65186 25.5689 6.87647 26.1382 8.22862C26.7075 9.58078 27.0006 11.0332 27.0002 12.5003ZM20.7077 12.7928C20.6148 12.6998 20.5045 12.626 20.3831 12.5757C20.2617 12.5254 20.1316 12.4995 20.0002 12.4995C19.8687 12.4995 19.7386 12.5254 19.6172 12.5757C19.4958 12.626 19.3855 12.6998 19.2927 12.7928L16.0002 16.0865L12.7077 12.7928C12.52 12.6051 12.2655 12.4997 12.0002 12.4997C11.7348 12.4997 11.4803 12.6051 11.2927 12.7928C11.105 12.9804 10.9996 13.2349 10.9996 13.5003C10.9996 13.7656 11.105 14.0201 11.2927 14.2078L15.0002 17.914V22.5003C15.0002 22.7655 15.1055 23.0198 15.2931 23.2074C15.4806 23.3949 15.7349 23.5003 16.0002 23.5003C16.2654 23.5003 16.5197 23.3949 16.7073 23.2074C16.8948 23.0198 17.0002 22.7655 17.0002 22.5003V17.914L20.7077 14.2078C20.8006 14.1149 20.8744 14.0046 20.9247 13.8832C20.975 13.7618 21.0009 13.6317 21.0009 13.5003C21.0009 13.3688 20.975 13.2387 20.9247 13.1173C20.8744 12.9959 20.8006 12.8856 20.7077 12.7928Z" fill="#FFF1EC"/>
    </g>
    <defs>
        <clipPath id="clip0_485_3342">
            <rect width="32" height="32" fill="white" transform="translate(0 -0.5)"/>
        </clipPath>
    </defs>
</svg>
