<svg width="40" height="42" viewBox="0 0 40 42" fill="none"
    xmlns="http://www.w3.org/2000/svg">
    <g clip-path="url(#clip0_485_3359)" filter="url(#filter0_dddd_485_3359)">
        <g clip-path="url(#clip1_485_3359)">
            <path d="M30.5031 17.9961C30.5057 18.4038 30.3818 18.8023 30.1485 19.1367C29.9153 19.4712 29.5841 19.7251 29.2006 19.8636L22.7531 22.2461L20.3781 28.6986C20.2375 29.0807 19.983 29.4104 19.6491 29.6434C19.3151 29.8763 18.9178 30.0012 18.5106 30.0012C18.1035 30.0012 17.7061 29.8763 17.3722 29.6434C17.0382 29.4104 16.7838 29.0807 16.6431 28.6986L14.2531 22.2461L7.80063 19.8711C7.41854 19.7304 7.08879 19.476 6.85586 19.142C6.62294 18.8081 6.49805 18.4107 6.49805 18.0036C6.49805 17.5964 6.62294 17.1991 6.85586 16.8651C7.08879 16.5312 7.41854 16.2767 7.80063 16.1361L14.2531 13.7461L16.6281 7.29359C16.7688 6.91151 17.0232 6.58175 17.3572 6.34883C17.6911 6.1159 18.0885 5.99101 18.4956 5.99101C18.9028 5.99101 19.3001 6.1159 19.6341 6.34883C19.968 6.58175 20.2225 6.91151 20.3631 7.29359L22.7531 13.7461L29.2056 16.1211C29.5894 16.2608 29.9203 16.5163 30.1528 16.8521C30.3852 17.188 30.5076 17.5877 30.5031 17.9961ZM23.5031 5.99609H25.5031V7.99609C25.5031 8.26131 25.6085 8.51566 25.796 8.7032C25.9836 8.89074 26.2379 8.99609 26.5031 8.99609C26.7683 8.99609 27.0227 8.89074 27.2102 8.7032C27.3978 8.51566 27.5031 8.26131 27.5031 7.99609V5.99609H29.5031C29.7683 5.99609 30.0227 5.89074 30.2102 5.7032C30.3978 5.51566 30.5031 5.26131 30.5031 4.99609C30.5031 4.73088 30.3978 4.47652 30.2102 4.28899C30.0227 4.10145 29.7683 3.99609 29.5031 3.99609H27.5031V1.99609C27.5031 1.73088 27.3978 1.47652 27.2102 1.28899C27.0227 1.10145 26.7683 0.996094 26.5031 0.996094C26.2379 0.996094 25.9836 1.10145 25.796 1.28899C25.6085 1.47652 25.5031 1.73088 25.5031 1.99609V3.99609H23.5031C23.2379 3.99609 22.9836 4.10145 22.796 4.28899C22.6085 4.47652 22.5031 4.73088 22.5031 4.99609C22.5031 5.26131 22.6085 5.51566 22.796 5.7032C22.9836 5.89074 23.2379 5.99609 23.5031 5.99609ZM34.5031 9.99609H33.5031V8.99609C33.5031 8.73088 33.3978 8.47652 33.2102 8.28899C33.0227 8.10145 32.7683 7.99609 32.5031 7.99609C32.2379 7.99609 31.9836 8.10145 31.796 8.28899C31.6085 8.47652 31.5031 8.73088 31.5031 8.99609V9.99609H30.5031C30.2379 9.99609 29.9836 10.1015 29.796 10.289C29.6085 10.4765 29.5031 10.7309 29.5031 10.9961C29.5031 11.2613 29.6085 11.5157 29.796 11.7032C29.9836 11.8907 30.2379 11.9961 30.5031 11.9961H31.5031V12.9961C31.5031 13.2613 31.6085 13.5157 31.796 13.7032C31.9836 13.8907 32.2379 13.9961 32.5031 13.9961C32.7683 13.9961 33.0227 13.8907 33.2102 13.7032C33.3978 13.5157 33.5031 13.2613 33.5031 12.9961V11.9961H34.5031C34.7683 11.9961 35.0227 11.8907 35.2102 11.7032C35.3978 11.5157 35.5031 11.2613 35.5031 10.9961C35.5031 10.7309 35.3978 10.4765 35.2102 10.289C35.0227 10.1015 34.7683 9.99609 34.5031 9.99609Z" fill="#FFF1EC"/>
        </g>
    </g>
    <defs>
        <filter id="filter0_dddd_485_3359" x="0" y="0" width="40" height="45" filterUnits="userSpaceOnUse" color-interpolation-filters="sRGB">
            <feFlood flood-opacity="0" result="BackgroundImageFix"/>
            <feColorMatrix in="SourceAlpha" type="matrix" values="0 0 0 0 0 0 0 0 0 0 0 0 0 0 0 0 0 0 127 0" result="hardAlpha"/>
            <feOffset dy="1"/>
            <feGaussianBlur stdDeviation="0.5"/>
            <feColorMatrix type="matrix" values="0 0 0 0 0.580392 0 0 0 0 0.152941 0 0 0 0 0 0 0 0 0.26 0"/>
            <feBlend mode="normal" in2="BackgroundImageFix" result="effect1_dropShadow_485_3359"/>
            <feColorMatrix in="SourceAlpha" type="matrix" values="0 0 0 0 0 0 0 0 0 0 0 0 0 0 0 0 0 0 127 0" result="hardAlpha"/>
            <feOffset dy="2"/>
            <feGaussianBlur stdDeviation="1"/>
            <feColorMatrix type="matrix" values="0 0 0 0 0.580392 0 0 0 0 0.152941 0 0 0 0 0 0 0 0 0.23 0"/>
            <feBlend mode="normal" in2="effect1_dropShadow_485_3359" result="effect2_dropShadow_485_3359"/>
            <feColorMatrix in="SourceAlpha" type="matrix" values="0 0 0 0 0 0 0 0 0 0 0 0 0 0 0 0 0 0 127 0" result="hardAlpha"/>
            <feOffset dy="5"/>
            <feGaussianBlur stdDeviation="1.5"/>
            <feColorMatrix type="matrix" values="0 0 0 0 0.580392 0 0 0 0 0.152941 0 0 0 0 0 0 0 0 0.13 0"/>
            <feBlend mode="normal" in2="effect2_dropShadow_485_3359" result="effect3_dropShadow_485_3359"/>
            <feColorMatrix in="SourceAlpha" type="matrix" values="0 0 0 0 0 0 0 0 0 0 0 0 0 0 0 0 0 0 127 0" result="hardAlpha"/>
            <feOffset dx="-1" dy="9"/>
            <feGaussianBlur stdDeviation="2"/>
            <feColorMatrix type="matrix" values="0 0 0 0 0.580392 0 0 0 0 0.152941 0 0 0 0 0 0 0 0 0.04 0"/>
            <feBlend mode="normal" in2="effect3_dropShadow_485_3359" result="effect4_dropShadow_485_3359"/>
            <feBlend mode="normal" in="SourceGraphic" in2="effect4_dropShadow_485_3359" result="shape"/>
        </filter>
        <clipPath id="clip0_485_3359">
            <rect width="32" height="32" fill="white" transform="translate(5)"/>
        </clipPath>
        <clipPath id="clip1_485_3359">
            <rect width="32" height="32" fill="white" transform="translate(5 -0.5)"/>
        </clipPath>
    </defs>
</svg>
