<svg width="33" height="42" viewBox="0 0 33 42" fill="none"
    xmlns="http://www.w3.org/2000/svg">
    <g clip-path="url(#clip0_485_3323)" filter="url(#filter0_dddd_485_3323)">
        <path d="M27.3455 4.40576L11.0642 1.53076C10.5419 1.43885 10.0045 1.55814 9.57013 1.86241C9.13577 2.16667 8.84004 2.63099 8.74796 3.15326L5.02921 24.2783C4.98373 24.5371 4.98969 24.8023 5.04675 25.0588C5.10381 25.3153 5.21085 25.558 5.36176 25.7731C5.51267 25.9882 5.70449 26.1715 5.92626 26.3124C6.14802 26.4534 6.39539 26.5492 6.65421 26.5945L22.9355 29.4695C23.1944 29.5152 23.4597 29.5094 23.7163 29.4524C23.973 29.3954 24.2159 29.2884 24.4311 29.1375C24.6463 28.9865 24.8297 28.7947 24.9707 28.5728C25.1118 28.351 25.2077 28.1035 25.253 27.8445L28.9717 6.71951C29.0628 6.19704 28.9427 5.65978 28.6377 5.22589C28.3327 4.79199 27.8679 4.49699 27.3455 4.40576ZM17.9355 15.9445C17.8947 16.1758 17.7737 16.3854 17.5938 16.5365C17.4139 16.6876 17.1866 16.7705 16.9517 16.7708C16.8931 16.7707 16.8345 16.7657 16.7767 16.7558L11.5892 15.8395C11.3427 15.7789 11.1284 15.6267 10.9899 15.414C10.8515 15.2012 10.7991 14.9437 10.8434 14.6937C10.8878 14.4437 11.0256 14.22 11.2289 14.0679C11.4321 13.9157 11.6856 13.8466 11.938 13.8745L17.123 14.7858C17.2524 14.8084 17.3762 14.8564 17.4871 14.9269C17.598 14.9974 17.694 15.0891 17.7694 15.1967C17.8449 15.3043 17.8984 15.4258 17.9269 15.5541C17.9554 15.6824 17.9583 15.8151 17.9355 15.9445ZM23.8105 12.922C23.7697 13.1531 23.6489 13.3626 23.4693 13.5136C23.2897 13.6647 23.0627 13.7477 22.828 13.7483C22.7688 13.7484 22.7098 13.7429 22.6517 13.732L12.2767 11.9008C12.0155 11.8545 11.7833 11.7064 11.6313 11.489C11.4793 11.2715 11.4198 11.0026 11.4661 10.7414C11.5123 10.4801 11.6605 10.248 11.8779 10.096C12.0953 9.94394 12.3642 9.88451 12.6255 9.93076L23.0005 11.7633C23.1301 11.7858 23.2539 11.8336 23.365 11.9041C23.4761 11.9745 23.5721 12.0662 23.6477 12.1738C23.7233 12.2815 23.7769 12.4029 23.8055 12.5313C23.8341 12.6597 23.837 12.7925 23.8142 12.922H23.8105ZM24.5042 8.98201C24.4634 9.21335 24.3424 9.42293 24.1626 9.57401C23.9827 9.72509 23.7554 9.80802 23.5205 9.80826C23.4618 9.80818 23.4033 9.80316 23.3455 9.79326L12.9705 7.96076C12.8382 7.94129 12.7111 7.89548 12.5968 7.82604C12.4825 7.75661 12.3833 7.66495 12.3051 7.5565C12.2269 7.44805 12.1712 7.32501 12.1413 7.19466C12.1115 7.06431 12.108 6.92929 12.1313 6.7976C12.1545 6.66591 12.204 6.54022 12.2766 6.42796C12.3493 6.3157 12.4438 6.21917 12.5544 6.14406C12.665 6.06895 12.7896 6.01679 12.9208 5.99067C13.0519 5.96456 13.187 5.96501 13.318 5.99201L23.693 7.82326C23.8227 7.84562 23.9467 7.89336 24.0579 7.96375C24.1691 8.03413 24.2653 8.12578 24.341 8.23343C24.4168 8.34108 24.4705 8.46262 24.4991 8.59108C24.5278 8.71954 24.5308 8.85239 24.508 8.98201H24.5042Z" fill="#FFF1EC"/>
    </g>
    <defs>
        <filter id="filter0_dddd_485_3323" x="-4" y="0" width="40" height="45" filterUnits="userSpaceOnUse" color-interpolation-filters="sRGB">
            <feFlood flood-opacity="0" result="BackgroundImageFix"/>
            <feColorMatrix in="SourceAlpha" type="matrix" values="0 0 0 0 0 0 0 0 0 0 0 0 0 0 0 0 0 0 127 0" result="hardAlpha"/>
            <feOffset dy="1"/>
            <feGaussianBlur stdDeviation="0.5"/>
            <feColorMatrix type="matrix" values="0 0 0 0 0.580392 0 0 0 0 0.152941 0 0 0 0 0 0 0 0 0.26 0"/>
            <feBlend mode="normal" in2="BackgroundImageFix" result="effect1_dropShadow_485_3323"/>
            <feColorMatrix in="SourceAlpha" type="matrix" values="0 0 0 0 0 0 0 0 0 0 0 0 0 0 0 0 0 0 127 0" result="hardAlpha"/>
            <feOffset dy="2"/>
            <feGaussianBlur stdDeviation="1"/>
            <feColorMatrix type="matrix" values="0 0 0 0 0.580392 0 0 0 0 0.152941 0 0 0 0 0 0 0 0 0.23 0"/>
            <feBlend mode="normal" in2="effect1_dropShadow_485_3323" result="effect2_dropShadow_485_3323"/>
            <feColorMatrix in="SourceAlpha" type="matrix" values="0 0 0 0 0 0 0 0 0 0 0 0 0 0 0 0 0 0 127 0" result="hardAlpha"/>
            <feOffset dy="5"/>
            <feGaussianBlur stdDeviation="1.5"/>
            <feColorMatrix type="matrix" values="0 0 0 0 0.580392 0 0 0 0 0.152941 0 0 0 0 0 0 0 0 0.13 0"/>
            <feBlend mode="normal" in2="effect2_dropShadow_485_3323" result="effect3_dropShadow_485_3323"/>
            <feColorMatrix in="SourceAlpha" type="matrix" values="0 0 0 0 0 0 0 0 0 0 0 0 0 0 0 0 0 0 127 0" result="hardAlpha"/>
            <feOffset dx="-1" dy="9"/>
            <feGaussianBlur stdDeviation="2"/>
            <feColorMatrix type="matrix" values="0 0 0 0 0.580392 0 0 0 0 0.152941 0 0 0 0 0 0 0 0 0.04 0"/>
            <feBlend mode="normal" in2="effect3_dropShadow_485_3323" result="effect4_dropShadow_485_3323"/>
            <feBlend mode="normal" in="SourceGraphic" in2="effect4_dropShadow_485_3323" result="shape"/>
        </filter>
        <clipPath id="clip0_485_3323">
            <rect width="32" height="32" fill="white" transform="translate(1)"/>
        </clipPath>
    </defs>
</svg>
